<?xml version="1.0" encoding="utf-8"?>
<!-- Generator: Adobe Illustrator 19.0.0, SVG Export Plug-In . SVG Version: 6.00 Build 0)  -->
<svg version="1.1" id="Capa_1" xmlns="http://www.w3.org/2000/svg" xmlns:xlink="http://www.w3.org/1999/xlink" x="0px" y="0px"
	 viewBox="255 -255 512 512" style="enable-background:new 255 -255 512 512;" xml:space="preserve">
<style type="text/css">
	.st0{fill:#FFFFFF;}
</style>
<path class="st0" d="M735-255H623H399H287c-17.7,0-32,14-32,31.6v448c0,17.7,14.3,32.4,32,32.4h112h224h112c17.7,0,32-14.7,32-32.4
	v-448C767-241,752.7-255,735-255z M367,193h-48v-48h48V193z M367,81h-48V33h48V81z M367-31h-48v-48h48V-31z M367-143h-48v-48h48
	V-143z M479,64.6v-112l96,56L479,64.6z M703,193h-48v-48h48V193z M703,81h-48V33h48V81z M703-31h-48v-48h48V-31z M703-143h-48v-48
	h48V-143z"/>
</svg>
