<?xml version="1.0" encoding="utf-8"?>
<!-- Generator: Adobe Illustrator 19.0.0, SVG Export Plug-In . SVG Version: 6.00 Build 0)  -->
<svg version="1.1" id="Capa_1" xmlns="http://www.w3.org/2000/svg" xmlns:xlink="http://www.w3.org/1999/xlink" x="0px" y="0px"
	 viewBox="255 -255 512 512" style="enable-background:new 255 -255 512 512;" xml:space="preserve">
<style type="text/css">
	.st0{fill:#FFFFFF;}
</style>
<g>
	<path class="st0" d="M324.8,133.8l65.6,76.2c8.4,9.8,22.2,9.7,30.7,0l66.7-76.2h255.9c12.9,0,23.3-10.4,23.3-23.4v-302.2
		c0-13-10.2-23.5-23.3-23.5H278.3c-12.9,0-23.3,10.4-23.3,23.5v302.2c0,12.9,10.3,23.4,23.3,23.4H324.8z M348.1-117
		c0-2.8,2.3-5.2,5.1-5.2h292.3c2.9,0,5.1,2.3,5.1,5.2v12.9c0,2.8-2.3,5.2-5.1,5.2H353.2c-2.9,0-5.1-2.3-5.1-5.2
		C348.1-104.1,348.1-117,348.1-117z M348.1-47.2c0-2.8,2.3-5.2,5.1-5.2h292.3c2.9,0,5.1,2.3,5.1,5.2v12.9c0,2.8-2.3,5.2-5.1,5.2
		H353.2c-2.9,0-5.1-2.3-5.1-5.2C348.1-34.3,348.1-47.2,348.1-47.2z M348.1,22.6c0-2.8,2.2-5.2,4.9-5.2h199.7c2.7,0,4.9,2.3,4.9,5.2
		v12.9c0,2.8-2.2,5.2-4.9,5.2H353c-2.7,0-4.9-2.3-4.9-5.2C348.1,35.5,348.1,22.6,348.1,22.6z"/>
</g>
</svg>
