<?xml version="1.0" encoding="utf-8"?>
<!-- Generator: Adobe Illustrator 19.0.0, SVG Export Plug-In . SVG Version: 6.00 Build 0)  -->
<svg version="1.1" id="Capa_1" xmlns="http://www.w3.org/2000/svg" xmlns:xlink="http://www.w3.org/1999/xlink" x="0px" y="0px"
	 viewBox="255 -255 512 512" style="enable-background:new 255 -255 512 512;" xml:space="preserve">
<style type="text/css">
	.st0{fill:#FFFFFF;}
</style>
<g>
	<g>
		<path class="st0" d="M578.1,188.2H315v-374.4h263c5.8,0,10.6-4.7,10.6-10.6v-38.9c0-5.8-4.7-10.6-10.6-10.6H265.6
			c-5.8,0-10.6,4.7-10.6,10.6v473.3c0,5.8,4.7,10.6,10.6,10.6h312.5c5.8,0,10.6-4.7,10.6-10.6v-38.9
			C588.6,192.9,583.9,188.2,578.1,188.2z"/>
		<path class="st0" d="M763.9-6.5L621.7-148.6c-4-4-11-4-14.9,0L573-114.9c-4.1,4.1-4.1,10.8,0,14.9l64.2,64.2h-278
			c-5.8,0-10.6,4.7-10.6,10.6v52.3c0,5.8,4.7,10.6,10.6,10.6h278L573.1,102c-4.1,4.1-4.1,10.8,0,14.9l33.7,33.7c2,2,4.7,3.1,7.5,3.1
			c2.8,0,5.5-1.1,7.5-3.1L763.9,8.5c2-2,3.1-4.7,3.1-7.5C767-1.8,765.9-4.5,763.9-6.5z"/>
	</g>
</g>
</svg>
