<?xml version="1.0" encoding="utf-8"?>
<!-- Generator: Adobe Illustrator 19.0.0, SVG Export Plug-In . SVG Version: 6.00 Build 0)  -->
<svg version="1.1" id="Capa_1" xmlns="http://www.w3.org/2000/svg" xmlns:xlink="http://www.w3.org/1999/xlink" x="0px" y="0px"
	 viewBox="255 -255 512 512" style="enable-background:new 255 -255 512 512;" xml:space="preserve">
<style type="text/css">
	.st0{fill:#FFFFFF;}
</style>
<g id="Playlist_2">
	<path class="st0" d="M690.2-118.5l-85.3,17.1v256L604,154c-5.6,29.2-41.2,51.8-84.5,51.8c-47.1,0-85.3-26.7-85.3-59.7
		s38.2-59.7,85.3-59.7c12.1,0,23.7,1.8,34.1,5v-243.9c0-18.3,2.4-40.9,34.1-51.2l135.5-28.1c-2.5-13-13.2-23.1-26.7-23.1H325.4
		c-15.3,0-27.7,12.7-27.7,28.4v455.1c0,15.7,12.4,28.4,27.7,28.4h371.2c15.3,0,27.7-12.7,27.7-28.4v-398.5
		C724.3-132.9,690.2-118.5,690.2-118.5z M365.9-169.7h119.5c9.4,0,17.1,7.6,17.1,17.1s-7.6,17.1-17.1,17.1H365.9
		c-9.4,0-17.1-7.6-17.1-17.1C348.9-162,356.5-169.7,365.9-169.7z M365.9-84.3h119.5c9.4,0,17.1,7.6,17.1,17.1
		c0,9.4-7.6,17.1-17.1,17.1H365.9c-9.4,0-17.1-7.6-17.1-17.1C348.9-76.7,356.5-84.3,365.9-84.3z M348.9,18.1
		c0-9.4,7.6-17.1,17.1-17.1h119.5c9.4,0,17.1,7.6,17.1,17.1s-7.6,17.1-17.1,17.1H365.9C356.5,35.1,348.9,27.5,348.9,18.1z"/>
</g>
</svg>
