<?xml version="1.0" encoding="utf-8"?>
<!-- Generator: Adobe Illustrator 19.0.0, SVG Export Plug-In . SVG Version: 6.00 Build 0)  -->
<svg version="1.1" id="Capa_1" xmlns="http://www.w3.org/2000/svg" xmlns:xlink="http://www.w3.org/1999/xlink" x="0px" y="0px"
	 viewBox="255 -255 512 512" style="enable-background:new 255 -255 512 512;" xml:space="preserve">
<style type="text/css">
	.st0{fill:#FFFFFF;}
</style>
<g>
	<circle class="st0" cx="511" cy="1" r="32"/>
	<path class="st0" d="M511-255C369.6-255,255-140.4,255,1s114.6,256,256,256S767,142.4,767,1S652.4-255,511-255z M422.3,188.9
		c-43.4-20.6-78.5-55.7-99.1-99.1l59.5-23.8c13.9,27.3,36.1,49.6,63.4,63.4L422.3,188.9z M580.1,43.3c-6,11.4-15.4,20.8-26.8,26.8
		c-75.4,39.7-151-35.9-111.3-111.4c6-11.4,15.4-20.8,26.8-26.8C544.2-107.8,619.8-32.2,580.1,43.3z M639.4-63.9
		c-13.9-27.3-36.1-49.6-63.4-63.4l23.8-59.5c43.4,20.6,78.5,55.7,99.1,99.1L639.4-63.9z"/>
</g>
</svg>
