<?xml version="1.0" encoding="utf-8"?>
<!-- Generator: Adobe Illustrator 19.0.0, SVG Export Plug-In . SVG Version: 6.00 Build 0)  -->
<svg version="1.1" id="Layer_1" xmlns="http://www.w3.org/2000/svg" xmlns:xlink="http://www.w3.org/1999/xlink" x="0px" y="0px"
	 viewBox="15 -15 32 32" style="enable-background:new 15 -15 32 32;" xml:space="preserve">
<style type="text/css">
	.st0{fill:#FFFFFF;}
</style>
<g id="XMLID_4_">
	<path id="XMLID_5_" class="st0" d="M46.8-1c-0.3-2.7-1.3-5.1-2.9-7.3c-2.6-3.5-6-5.7-10.3-6.4c-0.9-0.2-1.7-0.2-2.6-0.3
		c-0.1,0-0.1,0-0.2,0c-0.8,0.1-1.6,0.1-2.4,0.3c-8.3,1.2-14.2,9.1-13.3,17.4c0.5,4,2.1,7.4,5.1,10.1c3.5,3.2,7.7,4.6,12.4,4.1
		c3.6-0.3,6.8-1.8,9.4-4.4C45.8,8.8,47.4,4.3,46.8-1z M43.4,7.2c-0.4-0.7-0.9-1.7-1.1-2.5c-0.3-1.2-1.1,0-1.2,0.8s-0.6,1.4-1.7,0.2
		c-1.1-1.2-1.3-0.9-1.6-0.9c-0.3,0-0.9,0.8-0.8,4.5c0.1,2.7,1.1,3.1,1.8,3.3c-1.3,0.9-2.7,1.6-4.4,2c-6.3,1.6-12.6-1.3-15.6-7
		c-2.7-5.5-1.3-11.5,1.5-14.9c0.1,0.6,0.2,1.1,0.2,1.7c0.2,1.5,0,2.9-0.3,4.4c-0.1,0.3,0,0.7,0,1c0,0.2,0.3,0.4,0.5,0.4
		c0.1,0,0.4-0.2,0.4-0.4c0.1-0.3,0.1-0.6,0.1-0.9c0-0.2,0-0.4,0-0.8c0.2,0.2,0.4,0.3,0.5,0.4c0.3,0.3,0.7,0.7,1,1.1
		C23-0.3,23.2,0,23.2,0.2c0,0.4,0.2,0.7,0.4,1.1c0.3,0.4,0.4,0.8,0.5,1.3c0.1,0.2,0.1,0.4,0.2,0.6c0.2,0.4,0.4,0.6,0.9,0.7
		c0.5,0,0.7,0.2,0.7,0.7c-0.1,0-0.2,0-0.4,0c-0.6,0.1-0.9,0.3-0.8,0.9c0,1.2,0.5,2.2,1.3,3c0.2,0.2,0.5,0.4,0.7,0.7
		c0.5,0.5,0.7,1.1,0.5,1.9c-0.1,0.3-0.3,0.7-0.3,1c-0.1,0.4-0.1,0.8,0,1.1c0.1,0.4,0,1.2,0.4,1.1c0.7-0.1,1.1,0,1.1-0.7
		c0-0.1,0-0.2,0-0.3c-0.2-0.7,0.7-2.7,1.3-3.1c0.5-0.3,0.9-0.6,1.4-1c0.6-0.5,0.9-1.2,0.6-2c-0.2-0.7,0-1.3,0.6-1.8
		c0.5-0.5,0.9-1.1,0.8-1.8s-0.5-1.3-1.2-1.2c-0.3,0-0.6,0.2-0.9,0.3c-0.5,0.2-0.9,0.4-1.4,0.4c-0.6,0.1-1-0.3-1.3-0.8
		c-0.2-0.4-0.3-0.4-0.7-0.2c-0.3,0.2-0.7,0.4-1,0.6c-0.4,0.2-0.6,0.1-0.9-0.2c-0.2-0.2-0.4-0.3-0.6-0.4S24.7,2,24.6,1.9
		c-0.2-0.2-0.4-0.4-0.4-0.6s0.3-0.5,0.5-0.5c0.4-0.1,0.8-0.2,1.1-0.3c0.2,0,0.4-0.1,0.6-0.2c0.3-0.1,0.3-0.3,0.1-0.4
		c-0.1-0.1-0.2-0.1-0.3-0.2C25.6-0.5,25-0.8,24.4-1c-0.1-0.1-0.3-0.1-0.4-0.2c-0.4-0.2-0.4-0.5-0.1-0.8c1.3-1.2,2.8-1.5,4.2,0
		c0.4,0.5,0.7,1.1,1.1,1.6c0.3,0.4,0.7,0.8,1.1,1.1c0.2,0.1,0.5,0.1,0.7,0c0.3-0.1,0.3-0.5,0.1-0.8c-0.1-0.2-0.3-0.5-0.4-0.7
		c-0.8-1-0.7-2.9,0.8-3.7c0.5-0.3,1-0.6,1.3-1.3c-0.3,0.1-0.5,0.1-0.7,0.2c-1.1,0.4-0.3-0.5,0.2-0.6C32.6-6.3,32-6.5,32-6.5
		s0.4-0.1,0.8-0.3c0.3-0.1,0.6-0.3,0.8-0.5c0.2-0.1,0.2-0.4,0.3-0.6L33.8-8c-0.3,0-0.6,0.1-0.9,0.1c-0.5,0.1-0.6,0-0.7-0.6
		c0-0.4-0.4-0.5-0.7-0.4c-0.2,0.1-0.4,0.3-0.6,0.4c-0.5,0.3-0.9,0.2-1.1-0.4c-0.1-0.3-0.3-0.4-0.6-0.2C29-9,28.9-8.9,28.7-8.8
		c-0.3,0.1-0.5,0.3-0.8,0.4c-0.3,0.1-0.6,0.2-0.8-0.1c-0.2-0.3,0-0.6,0.2-0.8c0.3-0.3,0.7-0.4,1-0.6c0.5-0.3,1-0.5,1.5-0.8
		c0.4-0.2,0.5-0.6,0.4-1c-0.1-0.4-0.3-0.5-0.7-0.3c-0.3,0.1-0.5,0.4-0.8,0.5c-0.2,0.1-0.5,0.1-0.7,0c-0.1,0-0.2-0.2-0.2-0.4
		c0-0.1,0.2-0.2,0.3-0.2c0.7-0.1,1.4-0.2,2.1-0.3c0.1,0,0.2,0,0.3,0.1c0.5,0.6,1.1,0.9,1.8,1.1c0.6,0.2,0.7,0.1,0.7-0.5
		c0.7-0.2,1.5-0.5,2.2,0c0.4,0.3,0.8,0.6,1.1,0.9c0.1,0.1,0,0.3,0,0.5c-0.1,0.2-0.2,0.4-0.2,0.7c-0.1,0.4,0.2,0.8,0.6,0.8
		c0.1,0,0.3,0,0.4,0c0.4,0,0.6,0.1,0.5,0.6c-0.1,0.6,0,0.7,0.7,0.6c0.2,0,0.4,0,0.6,0.1c0.1,0,0.2,0.1,0.3,0.2
		c0.6,0.4,1,0.3,1.2-0.4c0-0.1,0-0.2,0-0.2c0.1-0.3,0.2-0.4,0.5-0.2c0.4,0.5,0.9,1,1.3,1.5c-0.5,0.4-0.5,1-0.4,1.5
		c0.1,0.6,0,1.1-0.3,1.6C41.3-3,41-2.5,40.9-2c-0.2,0.8,0,1.1,0.8,1.3s0.9,0.3,0.9,1.1c0,1,0.6,1.7,1.5,2.2c0.2,0.1,0.4,0.2,0.6,0.3
		C44.7,4,44.2,5.7,43.4,7.2z"/>
</g>
</svg>
