<?xml version="1.0" encoding="utf-8"?>
<!-- Generator: Adobe Illustrator 19.0.0, SVG Export Plug-In . SVG Version: 6.00 Build 0)  -->
<svg version="1.1" id="Capa_1" xmlns="http://www.w3.org/2000/svg" xmlns:xlink="http://www.w3.org/1999/xlink" x="0px" y="0px"
	 viewBox="255 -255 512 512" style="enable-background:new 255 -255 512 512;" xml:space="preserve">
<style type="text/css">
	.st0{fill:#FFFFFF;}
</style>
<g>
	<g>
		<path class="st0" d="M614.8-34.4c13.6-2.9,26.1-14.1,28.1-39c1.7-20.4-3.5-30.9-11.3-36.2C653.1-196.9,594-214,594-214
			s-44.1-74.9-130.2-22.3c-11,6.7-28,19.5-38.1,32.7c-16.3,17.3-27.4,45.5-29.1,91.1c-10.5,4-18.8,14.2-16.7,39
			c2.2,26,15.7,37.1,30,39.4c19.3,46.9,57.3,85.6,102.4,85.6C557.4,51.5,595.6,12.7,614.8-34.4z M512.3,29.6
			c-52.1,0-94-70.7-94-129.3c0-8,0.3-15.5,0.8-22.4c76.2,3.3,121.2-27.2,145.8-53.7c23.3,23.2,35.3,52.5,41.5,74.2
			c0,0.6,0,1.2,0,1.9C606.3-41.1,564.4,29.6,512.3,29.6z"/>
		<path class="st0" d="M482.4,118.2l6-25c0.7-2.9,2.2-5.3,4.2-7.2c-0.6-0.4-1.2-0.9-1.8-1.4L437,40l-32.8,7.7
			c-55.5,13.1-94.6,59.9-94.6,113.7V232c0,13.9,12.4,25,27.2,25h138.8l21.2-120.6C487.1,136.2,480.2,127.5,482.4,118.2z"/>
		<path class="st0" d="M618.4,47.7L586,40l-53.8,44.6c-0.6,0.5-1.2,0.9-1.8,1.4c2,1.9,3.5,4.4,4.2,7.2l6,25
			c2.3,9.3-4.7,18.1-14.2,18.2L547.6,257h138.8c14.8,0,26-11.1,26-25v-70.6C712.4,107.6,673.9,60.7,618.4,47.7z"/>
	</g>
</g>
</svg>
