<?xml version="1.0" encoding="utf-8"?>
<!-- Generator: Adobe Illustrator 19.0.0, SVG Export Plug-In . SVG Version: 6.00 Build 0)  -->
<svg version="1.1" id="Capa_1" xmlns="http://www.w3.org/2000/svg" xmlns:xlink="http://www.w3.org/1999/xlink" x="0px" y="0px"
	 viewBox="255 -255 512 512" style="enable-background:new 255 -255 512 512;" xml:space="preserve">
<style type="text/css">
	.st0{fill:#FFFFFF;}
</style>
<g id="Group">
	<path class="st0" d="M511,1.2c44.9,0,79.8-46.5,79.8-94.7v-15.1c0-48.2-34.9-82.4-79.8-82.4c-44.9,0-79.8,34.2-79.8,82.4v15.1
		C431.2-45.3,466.1,1.2,511,1.2z M351.1,16.8c12.8,0,48-16.6,48-51.2V-60c0-34.5-25.3-51.2-48-51.2c-21.9,0-47.9,16.6-47.9,51.2
		v25.6C303.2,0.1,339,16.8,351.1,16.8z M638.4,80.8c0-0.3-0.1-0.5-0.1-0.7c-0.4-3-1-6-1.8-8.8c0,0,0-0.1,0-0.1
		c-1.7-6.1-4.5-12-8.7-17.9v0c-6.9-9.6-17.4-19.4-34.3-28.9c-9-5-12.9-7.3-18.5-7.3c-8.8,0-16.5,6.9-29.5,18.8h0l-11.8,10.8
		C533.2,47,520.5,65,511,65c-9.5,0-22.2-18-22.7-18.4l-11.8-10.8h0C463.5,23.9,455.8,17,447,17c-5.5,0-10.5,2.3-18.5,7.3
		c-16.5,10.4-27.4,19.3-34.3,28.9l0,0c0,0,0,0.1,0,0.1c-4.2,5.8-7,11.7-8.6,17.8c0,0.1-0.1,0.1-0.1,0.2c-0.8,2.9-1.4,5.8-1.7,8.8
		c0,0.3-0.1,0.5-0.1,0.8c-0.4,3.2-0.5,6.4-0.5,9.8c0,0.4,0,70.1,0,70.4c0,22.7,8.6,32,32,32h192c23.6,0,32-8.8,32-32
		c0-0.3,0-70,0-70.4C639,87.2,638.8,84,638.4,80.8z M671.1,16.8c12.8,0,48-16.6,48-51.2V-60c0-34.5-25.3-51.2-48-51.2
		c-21.9,0-48,16.6-48,51.2v25.6C623.2,0.1,659,16.8,671.1,16.8z M291.4,51.4c-29.8,17-36.4,44-36.4,61.5c0,0.3,0,31.7,0,32
		c0,23.2,7.8,32,32,32h64c0,0,0-68,0-96l-16-16C318.1,50.1,303.8,44.4,291.4,51.4z M351,81C351.4,81.3,351,73.4,351,81L351,81z
		 M767,113c0-17.6-6.6-44.6-36.4-61.5c-12.4-7-26.7-1.4-43.6,13.6l-16,16c0,28,0,96,0,96h64c24.2,0,32-8.8,32-32
		C767,144.7,767,113.3,767,113z M671,81C671,73.4,670.6,81.3,671,81L671,81z"/>
</g>
</svg>
