<?xml version="1.0" encoding="utf-8"?>
<!-- Generator: Adobe Illustrator 19.0.0, SVG Export Plug-In . SVG Version: 6.00 Build 0)  -->
<svg version="1.1" id="Capa_1" xmlns="http://www.w3.org/2000/svg" xmlns:xlink="http://www.w3.org/1999/xlink" x="0px" y="0px"
	 viewBox="255 -255 512 512" style="enable-background:new 255 -255 512 512;" xml:space="preserve">
<style type="text/css">
	.st0{fill:#FFFFFF;}
</style>
<g>
	<g id="_x33__26_">
		<g>
			<path class="st0" d="M607-159H415c-88.4,0-160,71.6-160,160s71.6,160,160,160h192c88.4,0,160-71.6,160-160S695.4-159,607-159z
				 M415,97c-53,0-96-43-96-96s43-96,96-96s96,43,96,96S468,97,415,97z M415-63c-35.3,0-64,28.7-64,64s28.7,64,64,64s64-28.7,64-64
				S450.3-63,415-63z"/>
		</g>
	</g>
</g>
</svg>
