<?xml version="1.0" encoding="utf-8"?>
<!-- Generator: Adobe Illustrator 19.0.0, SVG Export Plug-In . SVG Version: 6.00 Build 0)  -->
<svg version="1.1" id="Capa_1" xmlns="http://www.w3.org/2000/svg" xmlns:xlink="http://www.w3.org/1999/xlink" x="0px" y="0px"
	 viewBox="255 -255 512 512" style="enable-background:new 255 -255 512 512;" xml:space="preserve">
<style type="text/css">
	.st0{fill:#FFFFFF;}
</style>
<g>
	<g>
		<path class="st0" d="M275.7-54.3c-11,4.2-18.9,14.1-20.4,25.9c-1.5,11.7,3.4,23.3,13,30.3l104.5,76l371.2-292L415.7,109.1
			l142.9,104c9.1,6.6,20.8,8.6,31.6,5.3c10.8-3.3,19.4-11.5,23.2-22l152.8-418.3c1.5-4.2,0.5-9-2.8-12.2c-3.2-3.2-8-4.2-12.2-2.5
			L275.7-54.3z"/>
		<path class="st0" d="M347.9,103.1l0.9,4.8l20.3,110.9c1.5,8.2,7,15.1,14.7,18.5c7.7,3.3,16.5,2.6,23.5-1.9
			c28.3-18.2,65.1-42.4,64.1-43.8L347.9,103.1z"/>
	</g>
</g>
</svg>
