<?xml version="1.0" encoding="utf-8"?>
<!-- Generator: Adobe Illustrator 19.0.0, SVG Export Plug-In . SVG Version: 6.00 Build 0)  -->
<svg version="1.1" id="Capa_1" xmlns="http://www.w3.org/2000/svg" xmlns:xlink="http://www.w3.org/1999/xlink" x="0px" y="0px"
	 viewBox="255 -255 512 512" style="enable-background:new 255 -255 512 512;" xml:space="preserve">
<style type="text/css">
	.st0{fill:#FFFFFF;}
</style>
<g>
	<path id="settings_1_" class="st0" d="M748.3-36.3l-50.7-8.5c-3.7-15.1-9.1-29.5-16.1-42.9l32.5-40.3c6.9-8.5,6.6-20.7-0.7-29
		l-20.2-22.7c-7.3-8.2-19.4-9.9-28.7-4.1L621-156.4c-19.1-13.3-40.7-23.2-64-28.9l-8.5-51c-1.8-10.8-11.1-18.7-22.1-18.7h-30.4
		c-10.9,0-20.3,7.9-22.1,18.7l-8.5,51c-19.3,4.7-37.3,12.3-53.8,22.4l-41.2-29.4c-8.9-6.4-21.1-5.4-28.9,2.4l-21.5,21.5
		c-7.7,7.8-8.7,20-2.4,28.9l29.5,41.3c-9.9,16.4-17.5,34.3-22.2,53.4l-51.3,8.6C262.9-34.5,255-25.2,255-14.2v30.4
		c0,11,7.9,20.3,18.7,22.1l51.3,8.6c3.9,15.7,9.5,30.7,17,44.7l-32.3,40c-6.9,8.5-6.6,20.7,0.7,29l20.2,22.7
		c7.3,8.2,19.4,9.9,28.7,4.1l44-27.6c18.6,12.7,39.7,22.1,62.3,27.6l8.5,51c1.7,10.8,11.1,18.7,22.1,18.7h30.4
		c11,0,20.3-7.9,22.1-18.7l8.5-51c19-4.7,36.9-12.1,53.2-22l43,30.7c8.9,6.4,21.1,5.4,28.8-2.4l21.5-21.5c7.7-7.7,8.8-19.9,2.4-28.8
		l-30.6-42.9c10-16.4,17.5-34.4,22.2-53.6l50.7-8.5c10.8-1.8,18.7-11.1,18.7-22.1v-30.4C767-25.2,759.1-34.5,748.3-36.3z M511.8,97
		c-53,0-96-43-96-96c0-53,43-96,96-96c53,0,96,43,96,96C607.8,54,564.8,97,511.8,97z"/>
</g>
</svg>
