<?xml version="1.0" encoding="utf-8"?>
<!-- Generator: Adobe Illustrator 19.0.0, SVG Export Plug-In . SVG Version: 6.00 Build 0)  -->
<svg version="1.1" id="Capa_1" xmlns="http://www.w3.org/2000/svg" xmlns:xlink="http://www.w3.org/1999/xlink" x="0px" y="0px"
	 viewBox="255 -255 512 512" style="enable-background:new 255 -255 512 512;" xml:space="preserve">
<style type="text/css">
	.st0{fill:#FFFFFF;}
</style>
<g>
	<g>
		<path class="st0" d="M511-255C369.8-255,255-140.2,255,1s114.8,256,256,256c141.1,0,256-114.8,256-256S652.2-255,511-255z
			 M658.6,142c0-5.9,0-10.1,0-10.1c0-34.9-40.3-47.6-61.9-56.9c-7.8-3.3-22.6-10.4-37.7-17.8c-5.1-2.5-9.7-9.1-10.3-14.8L547,25.9
			c11.6-10.8,22-25.8,23.8-42.5h2.6c4.1,0,8-3.1,8.6-6.8l4.1-25.3c0.5-5.4-4.6-8.7-8.7-8.7c0.1-0.5,0.2-1.1,0.3-1.5
			c0.5-3,0.8-6,1.1-8.8c0.3-2.3,0.5-4.7,0.6-7.1c0.4-11.9-1.6-22.4-4.9-28.2c-3.4-8.2-8.6-16.1-15.7-22.9
			c-20-18.9-43.2-26.3-63-11.1c-13.5-2.3-29.5,3.8-41,17.4c-6.3,7.4-10.2,15.8-11.9,24.2c-1.5,5.2-2.5,11.5-2.8,18.3
			c-0.3,7.6,0.5,14.5,1.9,20.1c-3.9,0.2-7.9,3.5-7.9,8.6l4.1,25.3c0.6,3.8,4.5,6.8,8.6,6.8h2.3c3.7,18.1,13.3,32.9,24,43.3l-1.6,16
			c-0.6,5.7-5.2,12.3-10.3,14.8c-14.6,7.1-29,14-37.6,17.6c-20.3,8.4-61.9,22-61.9,56.9v7.9C327.8,103.7,306.9,55,306.9,1.3
			c0-112.7,91.7-204.4,204.4-204.4S715.7-111.4,715.7,1.3C715.4,55.7,693.7,105.3,658.6,142z"/>
	</g>
</g>
</svg>
