<?xml version="1.0" encoding="utf-8"?>
<!-- Generator: Adobe Illustrator 19.0.0, SVG Export Plug-In . SVG Version: 6.00 Build 0)  -->
<svg version="1.1" id="Layer_1" xmlns="http://www.w3.org/2000/svg" xmlns:xlink="http://www.w3.org/1999/xlink" x="0px" y="0px"
	 viewBox="19 -19 40 40" style="enable-background:new 19 -19 40 40;" xml:space="preserve">
<style type="text/css">
	.st0{fill:#FFFFFF;}
</style>
<g>
	<path class="st0" d="M39-16.9c9.9,0,17.9,8.1,17.9,17.9s-8,17.9-17.9,17.9S21.1,10.9,21.1,1S29.1-16.9,39-16.9 M39-18.5
		C28.2-18.5,19.5-9.8,19.5,1S28.2,20.5,39,20.5S58.5,11.8,58.5,1S49.8-18.5,39-18.5L39-18.5z"/>
</g>
<g>
	<g>
		<path class="st0" d="M37.8,4.6l-0.2,3.8c0,0,3.5,0.9,5.7,6.1l4.9-0.2c0,0-2.9-4.7-5.4-5.4c0,0-0.9-1.4-0.2-1.9
			c0,0,0.2-0.1,0.5,0.1c0,0,1.9,0.5,2.3,0.1L46.3,6c0,0-0.2-0.6,0.5-0.5c0,0,0.1-1.2,0.4-1c0,0,0.9,0.5,1.1-0.3l-0.4-3
			c0,0,0.6-1.6,1.2-2.4c0,0,1-1.6-0.4-3.8l0.2-0.4c0,0-0.1,0.2-0.3,0.2c0,0-1.6-0.2-2-0.2c0,0-1.6,1.9-1.7,1.2l-0.2-0.1
			c0,0,2.7,2.8,0.2,6.7c0,0-1.8,3.5-6.6,2.3L37.8,4.6z"/>
		<path class="st0" d="M44.6-4.4c0,0-0.5-1.2-5-2.1l-1.9-5c0,0,5.6-2,9.4,1.2c0,0,1.9,1.8,2.3,3.3c0,0,0,0.8-0.9,1.5l-0.2,0.1
			l-2-0.2c0,0-0.9,1.2-1.2,1.3h-0.5V-4.4z"/>
		<path class="st0" d="M29.7,14.2l3.3-0.1l1.5-11.3l0.1-0.3c0,0,0,0.2-0.3,0.3c0,0-1.2,0.5-1.3,1.2c0,0,0,1.2-0.2,1.6
			c0,0-0.2,1-0.8,1.8c0,0-0.9,1.1-0.9,1.5c0,0-1,2.7-1.2,4.4L29.7,14.2z"/>
		<path class="st0" d="M34.6,2l0.9-5.5L33-7.6c0,0-1.2,1.9-1.2,3c0,0-0.6,2.9-0.1,4.6c0,0,0.2,0.6,0.5,1.2c0,0,0.9,1.6,0.9,2.9
			c0,0,0.1-0.7,1.5-1.2L34.6,2z"/>
		<path class="st0" d="M43.1-1.9c0.1,1.9-1.2,3.5-3,3.6S37,0.2,37-1.7c-0.1-1.9,1.2-3.5,3-3.6C41.7-5.3,43.1-3.8,43.1-1.9"/>
		<path class="st0" d="M37.4-3.6l-0.5-1.2v-0.1c0,0-1,0.6-1.2,0.4c0,0-0.2,0.1-0.7-0.7l-3.6-6.7V-12c0,0,2.6-1.9,3.8-2.1
			c0,0,0.4-0.2,0.5,0c0,0,0.1,0.1,0.2,0.3c0,0,1.7,3.5,2.3,5.6l0.5,1.6c0,0-0.5,0.5-0.6,0.6l0.5,0.8c0,0,0.2,0.2,0.7,0L37.4-3.6z"/>
	</g>
</g>
</svg>
