<?xml version="1.0" encoding="utf-8"?>
<!-- Generator: Adobe Illustrator 19.0.0, SVG Export Plug-In . SVG Version: 6.00 Build 0)  -->
<svg version="1.1" id="Capa_1" xmlns="http://www.w3.org/2000/svg" xmlns:xlink="http://www.w3.org/1999/xlink" x="0px" y="0px"
	 viewBox="130 -184 512 512" style="enable-background:new 130 -184 512 512;" xml:space="preserve">
<style type="text/css">
	.st0{opacity:0.7;}
	.st1{fill:#FFFFFF;}
</style>
<g class="st0">
	<path class="st1" d="M630.6,260.9L525.1,155.4c25.4-36.7,38.2-77.6,38.2-122.8c0-29.3-5.7-57.4-17.1-84.2
		c-11.4-26.8-26.8-49.8-46.2-69.2c-19.4-19.4-42.5-34.8-69.2-46.2C404-178.3,376-184,346.6-184c-29.3,0-57.4,5.7-84.2,17.1
		c-26.8,11.4-49.8,26.8-69.2,46.2c-19.4,19.4-34.8,42.5-46.2,69.2C135.7-24.8,130,3.3,130,32.6c0,29.3,5.7,57.4,17.1,84.2
		c11.4,26.8,26.8,49.8,46.2,69.2c19.4,19.4,42.5,34.8,69.2,46.2c26.8,11.4,54.8,17.1,84.2,17.1c45.1,0,86.1-12.7,122.8-38.2
		l105.5,105.2c7.4,7.8,16.6,11.7,27.7,11.7c10.7,0,19.9-3.9,27.7-11.7c7.8-7.8,11.7-17,11.7-27.7C642,277.8,638.2,268.5,630.6,260.9
		z M444,130c-27,27-59.4,40.5-97.4,40.5c-37.9,0-70.4-13.5-97.4-40.5c-27-27-40.5-59.4-40.5-97.4c0-37.9,13.5-70.4,40.5-97.4
		c27-27,59.4-40.5,97.4-40.5c37.9,0,70.4,13.5,97.4,40.5c27,27,40.5,59.4,40.5,97.4C484.5,70.6,471,103,444,130z"/>
</g>
</svg>
